<svg width="32" height="32" viewBox="0 0 32 32" fill="none" xmlns="http://www.w3.org/2000/svg">
<rect width="32" height="32" fill="white" fill-opacity="0.01"/>
<path fill-rule="evenodd" clip-rule="evenodd" d="M19.3333 17.3453H12.6667C10.8267 17.3453 9.33333 18.8387 9.33333 20.6827V25.9867C11.3046 27.3099 13.6258 28.015 16 28.012C18.3742 28.0151 20.6954 27.3099 22.6667 25.9867V20.6827C22.667 19.7981 22.3161 18.9497 21.691 18.3238C21.0659 17.698 20.2179 17.346 19.3333 17.3453Z" fill="#004FA3"/>
<path d="M16 16C18.2091 16 20 14.2091 20 12C20 9.79087 18.2091 8.00001 16 8.00001C13.7909 8.00001 12 9.79087 12 12C12 14.2091 13.7909 16 16 16Z" fill="#004FA3"/>
<path d="M16 26.6667C18.829 26.6667 21.5421 25.5429 23.5425 23.5425C25.5429 21.5421 26.6667 18.829 26.6667 16C26.6667 13.171 25.5429 10.4579 23.5425 8.45753C21.5421 6.45715 18.829 5.33334 16 5.33334C13.171 5.33334 10.4579 6.45715 8.45753 8.45753C6.45714 10.4579 5.33333 13.171 5.33333 16C5.33333 18.829 6.45714 21.5421 8.45753 23.5425C10.4579 25.5429 13.171 26.6667 16 26.6667ZM16 29.3333C8.636 29.3333 2.66666 23.364 2.66666 16C2.66666 8.63601 8.636 2.66667 16 2.66667C23.364 2.66667 29.3333 8.63601 29.3333 16C29.3333 23.364 23.364 29.3333 16 29.3333Z" fill="#004FA3"/>
</svg>
